<svg viewBox="0 0 33 33" fill="none" xmlns="http://www.w3.org/2000/svg">
<g clip-path="url(#clip0_6_73)">
<path d="M16.0082 0.908455C9.42836 0.908455 7.50399 0.915243 7.12993 0.946273C5.77963 1.05852 4.93939 1.27112 4.02399 1.72688C3.31854 2.07718 2.76218 2.48324 2.21309 3.05245C1.21309 4.09052 0.607025 5.36761 0.387631 6.88567C0.280964 7.62264 0.249934 7.77294 0.243631 11.5373C0.241207 12.7921 0.243631 14.4435 0.243631 16.6585C0.243631 23.2331 0.250904 25.1555 0.282419 25.5288C0.39151 26.8428 0.597571 27.6694 1.03393 28.5737C1.86787 30.3046 3.4606 31.604 5.33696 32.0888C5.98666 32.2561 6.70424 32.3482 7.62545 32.3918C8.01575 32.4088 11.9939 32.4209 15.9745 32.4209C19.9551 32.4209 23.9357 32.4161 24.3164 32.3967C25.383 32.3465 26.0024 32.2634 26.6873 32.0864C28.5757 31.5991 30.1394 30.3191 30.9903 28.564C31.4182 27.6815 31.6351 26.8234 31.7333 25.578C31.7547 25.3065 31.7636 20.9775 31.7636 16.6544C31.7636 12.3305 31.7539 8.00955 31.7326 7.73803C31.6332 6.47258 31.4162 5.62167 30.9745 4.72227C30.6121 3.98603 30.2097 3.43621 29.6254 2.87403C28.5828 1.87815 27.3076 1.27209 25.7881 1.05294C25.0519 0.946516 24.9052 0.915 21.1379 0.908455H16.0082Z" fill="url(#paint0_radial_6_73)"/>
<path d="M16.0082 0.908455C9.42836 0.908455 7.50399 0.915243 7.12993 0.946273C5.77963 1.05852 4.93939 1.27112 4.02399 1.72688C3.31854 2.07718 2.76218 2.48324 2.21309 3.05245C1.21309 4.09052 0.607025 5.36761 0.387631 6.88567C0.280964 7.62264 0.249934 7.77294 0.243631 11.5373C0.241207 12.7921 0.243631 14.4435 0.243631 16.6585C0.243631 23.2331 0.250904 25.1555 0.282419 25.5288C0.39151 26.8428 0.597571 27.6694 1.03393 28.5737C1.86787 30.3046 3.4606 31.604 5.33696 32.0888C5.98666 32.2561 6.70424 32.3482 7.62545 32.3918C8.01575 32.4088 11.9939 32.4209 15.9745 32.4209C19.9551 32.4209 23.9357 32.4161 24.3164 32.3967C25.383 32.3465 26.0024 32.2634 26.6873 32.0864C28.5757 31.5991 30.1394 30.3191 30.9903 28.564C31.4182 27.6815 31.6351 26.8234 31.7333 25.578C31.7547 25.3065 31.7636 20.9775 31.7636 16.6544C31.7636 12.3305 31.7539 8.00955 31.7326 7.73803C31.6332 6.47258 31.4162 5.62167 30.9745 4.72227C30.6121 3.98603 30.2097 3.43621 29.6254 2.87403C28.5828 1.87815 27.3076 1.27209 25.7881 1.05294C25.0519 0.946516 24.9052 0.915 21.1379 0.908455H16.0082Z" fill="url(#paint1_radial_6_73)"/>
<path d="M16.001 5.02966C12.8407 5.02966 12.4441 5.04348 11.2029 5.09997C9.96412 5.15669 9.11854 5.35281 8.37866 5.64057C7.61333 5.93778 6.96412 6.33536 6.31733 6.98239C5.67006 7.62918 5.27248 8.27839 4.9743 9.04348C4.68581 9.7836 4.48945 10.6294 4.43369 11.8677C4.37818 13.1089 4.36363 13.5058 4.36363 16.666C4.36363 19.8263 4.37769 20.2217 4.43394 21.4629C4.49091 22.7017 4.68703 23.5472 4.97454 24.2871C5.272 25.0525 5.66957 25.7017 6.3166 26.3485C6.96315 26.9957 7.61236 27.3943 8.37721 27.6915C9.11757 27.9792 9.96339 28.1754 11.2019 28.2321C12.4431 28.2886 12.8395 28.3024 15.9995 28.3024C19.16 28.3024 19.5554 28.2886 20.7966 28.2321C22.0354 28.1754 22.8819 27.9792 23.6223 27.6915C24.3874 27.3943 25.0356 26.9957 25.6822 26.3485C26.3294 25.7017 26.727 25.0525 27.0252 24.2874C27.3113 23.5472 27.5076 22.7014 27.5658 21.4631C27.6216 20.2219 27.6361 19.8263 27.6361 16.666C27.6361 13.5058 27.6216 13.1092 27.5658 11.868C27.5076 10.6292 27.3113 9.7836 27.0252 9.04372C26.727 8.27839 26.3294 7.62918 25.6822 6.98239C25.0349 6.33512 24.3876 5.93754 23.6216 5.64057C22.8798 5.35281 22.0337 5.15669 20.7949 5.09997C19.5537 5.04348 19.1585 5.02966 15.9973 5.02966H16.001ZM14.9571 7.12663C15.2669 7.12615 15.6126 7.12663 16.001 7.12663C19.1079 7.12663 19.4761 7.13778 20.703 7.19354C21.8376 7.24542 22.4533 7.435 22.8635 7.59427C23.4065 7.80518 23.7937 8.0573 24.2007 8.46457C24.608 8.87184 24.8601 9.25972 25.0715 9.80275C25.2308 10.2125 25.4206 10.8282 25.4722 11.9628C25.528 13.1894 25.5401 13.5579 25.5401 16.6634C25.5401 19.7688 25.528 20.1373 25.4722 21.364C25.4204 22.4985 25.2308 23.1143 25.0715 23.524C24.8606 24.067 24.608 24.4537 24.2007 24.8607C23.7934 25.268 23.4068 25.5201 22.8635 25.731C22.4538 25.891 21.8376 26.0801 20.703 26.132C19.4764 26.1877 19.1079 26.1998 16.001 26.1998C12.8938 26.1998 12.5256 26.1877 11.2989 26.132C10.1644 26.0796 9.5486 25.89 9.13818 25.7308C8.59515 25.5198 8.20727 25.2677 7.8 24.8605C7.39272 24.4532 7.1406 24.0663 6.92921 23.523C6.76993 23.1133 6.58012 22.4975 6.52848 21.363C6.47272 20.1363 6.46157 19.7678 6.46157 16.6605C6.46157 13.5531 6.47272 13.1865 6.52848 11.9598C6.58036 10.8253 6.76993 10.2095 6.92921 9.79936C7.14012 9.25633 7.39272 8.86845 7.8 8.46118C8.20727 8.05391 8.59515 7.80178 9.13818 7.59039C9.54836 7.43039 10.1644 7.2413 11.2989 7.18918C12.3724 7.14069 12.7884 7.12615 14.9571 7.12372V7.12663ZM22.2124 9.05875C21.4414 9.05875 20.816 9.68348 20.816 10.4546C20.816 11.2255 21.4414 11.851 22.2124 11.851C22.9833 11.851 23.6087 11.2255 23.6087 10.4546C23.6087 9.68372 22.9833 9.05827 22.2124 9.05827V9.05875ZM16.001 10.6903C12.7008 10.6903 10.0252 13.3659 10.0252 16.666C10.0252 19.9661 12.7008 22.6406 16.001 22.6406C19.3011 22.6406 21.9758 19.9661 21.9758 16.666C21.9758 13.3659 19.3011 10.6903 16.001 10.6903ZM16.001 12.7872C18.143 12.7872 19.8798 14.5237 19.8798 16.666C19.8798 18.8081 18.143 20.5448 16.001 20.5448C13.8587 20.5448 12.1222 18.8081 12.1222 16.666C12.1222 14.5237 13.8587 12.7872 16.001 12.7872Z" fill="white"/>
</g>
<defs>
<radialGradient id="paint0_radial_6_73" cx="0" cy="0" r="1" gradientUnits="userSpaceOnUse" gradientTransform="translate(8.61538 34.8481) rotate(-90) scale(31.2312 29.0554)">
<stop stop-color="#FFDD55"/>
<stop offset="0.1" stop-color="#FFDD55"/>
<stop offset="0.5" stop-color="#FF543E"/>
<stop offset="1" stop-color="#C837AB"/>
</radialGradient>
<radialGradient id="paint1_radial_6_73" cx="0" cy="0" r="1" gradientUnits="userSpaceOnUse" gradientTransform="translate(-5.03739 3.17856) rotate(78.6776) scale(13.9606 57.5608)">
<stop stop-color="#3771C8"/>
<stop offset="0.128" stop-color="#3771C8"/>
<stop offset="1" stop-color="#6600FF" stop-opacity="0"/>
</radialGradient>
<clipPath id="clip0_6_73">
<rect width="32.001" height="32" fill="white" transform="translate(0 0.666016)"/>
</clipPath>
</defs>
</svg>
