<svg viewBox="0 0 33 33" fill="none" xmlns="http://www.w3.org/2000/svg">
<path d="M0.000976562 2.9583C0.000976562 1.69265 1.05968 0.666016 2.36571 0.666016H29.6362C30.9422 0.666016 32.001 1.69265 32.001 2.9583V30.3737C32.001 31.6398 30.9422 32.666 29.6362 32.666H2.36571C1.05968 32.666 0.000976562 31.6398 0.000976562 30.3737V2.9583Z" fill="#006699"/>
<path fill-rule="evenodd" clip-rule="evenodd" d="M10.1032 27.4533V13.0035H5.3004V27.4533H10.1032ZM7.70179 11.0307C9.37664 11.0307 10.4191 9.92108 10.4191 8.53442C10.3879 7.11655 9.37665 6.03776 7.73357 6.03776C6.09066 6.03776 5.01648 7.11655 5.01648 8.53442C5.01648 9.92108 6.05871 11.0307 7.67049 11.0307H7.70179Z" fill="white"/>
<path fill-rule="evenodd" clip-rule="evenodd" d="M12.7608 27.4533H17.5636V19.384C17.5636 18.9521 17.5948 18.5207 17.7216 18.2119C18.0688 17.3491 18.8591 16.4554 20.1859 16.4554C21.9238 16.4554 22.619 17.7805 22.619 19.723V27.4533H27.4214V19.168C27.4214 14.7297 25.052 12.6645 21.8921 12.6645C19.3011 12.6645 18.1636 14.1127 17.5317 15.0991H17.5637V13.0035H12.7609C12.824 14.3594 12.7608 27.4533 12.7608 27.4533Z" fill="white"/>
</svg>
