<svg width="88" height="100" viewBox="0 0 88 100" fill="none" xmlns="http://www.w3.org/2000/svg">
<path fill-rule="evenodd" clip-rule="evenodd" d="M81.4284 20.408L49.8502 1.66426C48.0156 0.574981 45.9214 0.00012207 43.7877 0.00012207C41.6541 0.00012207 39.5599 0.574981 37.7252 1.66426L6.14086 20.408C4.26371 21.5281 2.71042 23.1175 1.63376 25.0198C0.557095 26.9222 -0.00586692 29.0721 0.000239188 31.258V68.7455C-0.0113592 70.9263 0.543555 73.0728 1.61065 74.9747C2.67775 76.8766 4.22046 78.4689 6.08774 79.5955L37.6659 98.3393C39.5005 99.4285 41.5947 100.003 43.7284 100.003C45.862 100.003 47.9562 99.4285 49.7909 98.3393L81.3752 79.5955C83.2425 78.4689 84.7852 76.8766 85.8523 74.9747C86.9194 73.0728 87.4743 70.9263 87.4627 68.7455V31.258C87.4802 29.0826 86.9338 26.9397 85.8768 25.0383C84.8198 23.1368 83.2883 21.5416 81.4315 20.408H81.4284ZM56.969 78.9455V81.633C56.967 81.7987 56.9237 81.9612 56.8429 82.1058C56.7621 82.2505 56.6465 82.3726 56.5065 82.4611L54.9065 83.3768C54.6565 83.508 54.444 83.3768 54.444 83.0236V80.3768C53.3145 80.9318 52.0217 81.0573 50.8065 80.7299C50.6127 80.5986 50.5377 80.3486 50.6315 80.1049L51.2034 77.6674C51.2511 77.4612 51.3626 77.2753 51.5221 77.1361C51.5676 77.091 51.6204 77.0541 51.6784 77.0268C51.7587 76.9954 51.848 76.9954 51.9284 77.0268C53.0437 77.3263 54.2321 77.1759 55.2377 76.608C55.9521 76.2591 56.5587 75.7234 56.9933 75.0577C57.428 74.392 57.6744 73.6211 57.7065 72.8268C57.7065 71.458 56.9565 70.8893 55.144 70.8736C52.8502 70.8736 50.769 70.4361 50.6752 67.0486C50.7015 65.6025 51.0474 64.1801 51.6882 62.8834C52.3289 61.5868 53.2487 60.4479 54.3815 59.5486V56.8236C54.3877 56.6576 54.4328 56.4953 54.5131 56.3499C54.5935 56.2044 54.7068 56.0799 54.844 55.9861L56.3877 55.0049C56.6377 54.8736 56.8502 55.0049 56.8502 55.3674V58.0924C57.7959 57.6625 58.8516 57.5358 59.8721 57.7299C60.0909 57.8549 60.1784 58.1299 60.0721 58.3549L59.5315 60.7705C59.4703 61.021 59.3161 61.2389 59.1002 61.3799C59.0377 61.4174 58.944 61.4049 58.869 61.3799C57.8741 61.1621 56.8336 61.3319 55.9596 61.8549C55.3221 62.1299 54.7761 62.5806 54.3854 63.1545C53.9947 63.7284 53.7755 64.4016 53.7534 65.0955C53.7534 66.3299 54.4034 66.7049 56.5877 66.7518C59.5096 66.7518 60.7659 68.0736 60.8002 71.008C60.7727 72.5254 60.4151 74.0186 59.7524 75.3839C59.0898 76.7492 58.1378 77.9539 56.9627 78.9143L56.969 78.9455ZM73.5096 74.4143C73.5285 74.528 73.5158 74.6446 73.4728 74.7516C73.4298 74.8585 73.3582 74.9515 73.2659 75.0205L65.3127 79.8705C65.2377 79.933 65.1252 79.9424 65.0409 79.8924C64.9565 79.8424 64.9159 79.7361 64.9377 79.6424V77.5799C64.9432 77.4696 64.9803 77.3632 65.0445 77.2735C65.1088 77.1837 65.1976 77.1143 65.3002 77.0736L73.1627 72.3643C73.2377 72.3018 73.3502 72.2924 73.4346 72.3424C73.519 72.3924 73.5596 72.4986 73.5377 72.5924V74.4111L73.5096 74.4143ZM79.0252 28.3143L49.144 46.7705C45.4159 48.9768 42.6752 51.3893 42.6752 55.8768V92.683C42.6752 95.3705 43.7784 97.058 45.4315 97.6205C44.8851 97.7225 44.331 97.7779 43.7752 97.7861C42.0202 97.7822 40.2986 97.3062 38.7909 96.408L7.21274 77.6674C5.67518 76.7448 4.40475 75.4372 3.52682 73.8737C2.6489 72.3102 2.19382 70.5448 2.20649 68.7518V31.258C2.19233 29.4625 2.64665 27.6944 3.52459 26.1281C4.40252 24.5619 5.67374 23.2516 7.21274 22.3268L38.7909 3.58301C41.8534 1.77051 45.6534 1.77051 48.7159 3.58301L80.294 22.3268C82.8971 23.9018 84.669 26.5455 85.144 29.5143C84.119 27.2861 81.7596 26.7018 79.0127 28.2799H79.0221L79.0252 28.3143Z" fill="white"/>
</svg>
