<svg viewBox="0 0 100 100" fill="none" xmlns="http://www.w3.org/2000/svg">
<path d="M44.1455 2.27356L46.8141 7.28569C47.414 8.21062 48.064 9.02931 48.8295 9.79175C51.074 12.0082 53.1661 14.3739 55.0916 16.8725C59.6131 22.8095 62.6629 29.4028 64.8409 36.5335C66.1471 40.8894 66.8564 45.3578 66.9095 49.8763C67.1282 63.3846 62.4973 74.9838 53.1605 84.6237C51.6417 86.1524 50.001 87.5548 48.2546 88.8171C47.3296 88.8171 46.8922 88.1078 46.511 87.4547C45.8167 86.2437 45.3547 84.9137 45.1486 83.5331C44.8205 81.8989 44.6048 80.2646 44.7111 78.5772V77.8148C44.6361 77.6523 43.8205 2.65791 44.1455 2.27356Z" fill="#599636"/>
<path d="M44.1455 2.10799C44.0361 1.88926 43.9268 2.05487 43.8174 2.16111C43.8705 3.25478 43.4893 4.22971 42.8925 5.16089C42.2363 6.08582 41.3676 6.79514 40.4958 7.55759C35.6524 11.751 31.8401 16.8163 28.7872 22.4815C24.725 30.1059 22.6314 38.2772 22.0377 46.8797C21.7659 49.9826 23.0189 60.9318 23.997 64.0909C26.6655 72.4778 31.4589 79.5054 37.6679 85.6049C39.1927 87.0736 40.8239 88.436 42.5113 89.7453C43.0018 89.7453 43.055 89.3078 43.1675 88.9828C43.3825 88.2874 43.5465 87.5773 43.658 86.858L44.7517 78.6898L44.1455 2.10799Z" fill="#6CAC48"/>
<path d="M46.814 92.1357C46.9234 90.8858 47.5234 89.8484 48.1765 88.8141C47.5203 88.5422 47.0328 88.0016 46.6516 87.3986C46.3228 86.8276 46.0507 86.2258 45.8391 85.6018C45.0767 83.3145 44.9142 80.9147 44.6955 78.5774V77.1619C44.4236 77.3806 44.3673 79.2305 44.3673 79.5054C44.2083 81.9758 43.8805 84.4324 43.3862 86.858C43.2237 87.8391 43.1143 88.8172 42.5112 89.689C42.5112 89.7984 42.5112 89.9077 42.5644 90.0702C43.5455 92.9575 43.8143 95.8979 43.9799 98.8945V99.9882C43.9799 101.294 43.9268 101.019 45.0111 101.457C45.4485 101.619 45.936 101.676 46.3735 102.001C46.7016 102.001 46.7547 101.729 46.7547 101.51L46.5922 99.7132V94.7011C46.5391 93.8262 46.7016 92.9575 46.8109 92.1388L46.814 92.1357Z" fill="#C2BFBF"/>
</svg>
