<!-- 37 : 15 -->
<svg viewBox="0 0 74 30" fill="none" xmlns="http://www.w3.org/2000/svg">
<g clip-path="url(#clip0_9456_101812)">
<path d="M3.62654 27.6282H5.05677C5.33584 27.6282 5.54514 27.4538 5.54514 27.2096C5.54514 26.9654 5.33584 26.791 5.05677 26.791H2.82422V28.5003L3.20794 27.8724C3.31259 27.7329 3.45212 27.6282 3.62654 27.6282Z" fill="#005DAC"/>
<path d="M3.62654 25.9189H5.09165C5.33584 25.9189 5.58002 25.8143 5.58002 25.605C5.58002 25.3957 5.37072 25.291 5.09165 25.291H2.82422V26.791L3.20794 26.1631C3.31259 26.0236 3.45212 25.9189 3.62654 25.9189Z" fill="#005DAC"/>
<path d="M-0.00195312 0V30H29.9979V0H-0.00195312ZM9.62592 9.62791H16.0445C17.7189 9.62791 20.3701 9.90698 20.3701 12.4535C20.3701 13.7093 19.4282 14.6163 18.3468 14.9302C19.7073 15.4186 20.3701 16.2907 20.3701 17.5116C20.3701 20.1628 17.8236 20.407 16.0445 20.407H13.8468V18.6977C13.8468 17.7558 14.6492 17.7558 14.6492 17.7558H16.6026C17.0561 17.7558 17.2305 17.3721 17.2305 17.3721L17.9282 16.0116H14.6492C13.9166 16.0814 13.8468 16.9535 13.8468 16.9535V14.686C13.8468 13.6744 14.684 13.6395 14.684 13.6395H17.1259C17.6491 13.6395 17.7887 13.3256 17.7887 13.3256L18.5212 11.8953H11.8585V20.407H10.9515H9.62592V9.62791ZM5.09105 28.4651H2.82362H1.53292V24.4186H5.09105C5.82361 24.4186 7.00965 24.5233 7.00965 25.4651C7.00965 25.9535 6.59105 26.2674 6.10268 26.407C6.6957 26.5814 7.00965 26.9302 7.00965 27.3837C7.00965 28.3953 5.89337 28.4651 5.09105 28.4651ZM11.9631 28.4651L11.5445 27.7326H9.2422L9.62592 27.1046C9.73057 26.9651 9.8701 26.8953 10.0445 26.8953H11.0213L10.1492 25.3953L8.37011 28.4651H6.83523L9.34685 24.4186H11.0213L13.498 28.4651H11.9631ZM16.4282 28.4651H14.2306C14.0561 28.4651 13.9166 28.3953 13.8119 28.2558L13.4282 27.6279H15.905C16.2189 27.6279 16.4282 27.4884 16.4282 27.1744V24.4186H17.7189V27.314C17.7538 28.186 17.1608 28.4651 16.4282 28.4651ZM22.7073 28.4651L22.2887 27.7326H19.9863L20.3701 27.1046C20.4747 26.9651 20.6142 26.8953 20.7887 26.8953H21.7654L20.9282 25.4302L19.1491 28.5H17.6143L20.091 24.4186H21.7654L24.2421 28.4651H22.7073ZM28.4631 27.314C28.4631 28.186 27.87 28.4651 27.1375 28.4651H24.9398C24.7654 28.4651 24.6259 28.3953 24.5212 28.2558L24.1375 27.6279H26.6142C26.9282 27.6279 27.1724 27.4884 27.1724 27.1744V24.4186H28.4979V27.314H28.4631Z" fill="#005DAC"/>
<path d="M34.8818 12.1045H32.998V17.9301H34.8818V12.1045Z" fill="#005DAC"/>
<path d="M37.4639 12.1045V14.4068H36.0337C35.7895 14.4068 35.5453 14.5464 35.4058 14.7208L34.8477 15.6277H37.429V17.9301H39.3128V12.1045H37.4639Z" fill="#005DAC"/>
<path d="M69.1025 12.1045H67.2188V17.9301H69.1025V12.1045Z" fill="#005DAC"/>
<path d="M71.6846 12.1045V14.4068H70.2544C70.0102 14.4068 69.766 14.5464 69.6265 14.7208L69.0684 15.6277H71.6497V17.9301H73.5335V12.1045H71.6846Z" fill="#005DAC"/>
<path d="M50.9998 13.4998L48.4533 17.9301H46.2207L49.7788 12.1045H52.2207L55.7788 17.9301H53.5463L52.9532 16.8836H49.6742L50.2323 15.9766C50.3719 15.7673 50.616 15.6626 50.8602 15.6626H52.2904L50.9998 13.4998Z" fill="#005DAC"/>
<path d="M62.127 16.7091L61.5688 17.6161C61.4293 17.8254 61.1851 17.9301 60.9409 17.9301H57.8014C56.72 17.9301 55.8828 17.5115 55.8828 16.2557V12.1045H57.7665V16.0464C57.7665 16.465 58.1154 16.6743 58.534 16.6743L62.127 16.7091Z" fill="#005DAC"/>
<path d="M64.6028 17.9301H62.7191V13.3254H60.7656V12.1045H66.5912V13.3254H64.6028V17.9301Z" fill="#005DAC"/>
<path d="M42.0344 14.0231V14.3719H44.7553L44.1972 15.3138C44.1972 15.3138 44.0576 15.558 43.7088 15.558H42.1041V16.0812C42.1041 16.0812 42.1041 16.151 42.139 16.1859C42.2437 16.465 42.4879 16.6743 42.8018 16.6743H45.139H45.6274V17.8952H40.1855V12.1045H45.6274V13.3254H42.7669C42.3483 13.3254 42.0344 13.6394 42.0344 14.0231Z" fill="#005DAC"/>
</g>
<defs>
<clipPath id="clip0_9456_101812">
<rect width="73.8486" height="30" fill="white"/>
</clipPath>
</defs>
</svg>
