<svg viewBox="0 0 40 40" fill="none" xmlns="http://www.w3.org/2000/svg">
<g clip-path="url(#clip0_8963_95570)">
<mask id="mask0_8963_95570" style="mask-type:luminance" maskUnits="userSpaceOnUse" x="0" y="0" width="40" height="40">
<path d="M40 0H0V40H40V0Z" fill="white"/>
</mask>
<g mask="url(#mask0_8963_95570)">
<path d="M40.0086 0H0V39.9983H40.0086V0Z" fill="#005DAC"/>
<path d="M9.68055 33.3547H8.61963V36.6361H9.68055V33.3547Z" fill="white"/>
<path d="M11.1398 33.3547V34.6525H10.3375C10.1992 34.6539 10.0711 34.722 9.9922 34.8353L9.68359 35.3383H11.1391V36.6361H12.2V33.3547H11.1398Z" fill="white"/>
<path d="M28.8602 33.3547H27.7991V36.6361H28.8602V33.3547Z" fill="white"/>
<path d="M30.3197 33.3547V34.6525H29.5172C29.3788 34.6539 29.2508 34.722 29.1719 34.8353L28.8633 35.3383H30.3188V36.6361H31.3797V33.3547H30.3197Z" fill="white"/>
<path d="M18.6633 34.1461L17.2251 36.6361H15.9719L17.9782 33.3547H19.3493L21.3532 36.6336H20.1016L19.7649 36.0492H17.9079L18.2165 35.5461C18.2954 35.4328 18.4243 35.365 18.5618 35.3633H19.3665L18.6633 34.1461Z" fill="white"/>
<path d="M24.9305 35.9478L24.6219 36.4533C24.543 36.5664 24.4148 36.6345 24.2773 36.6361H22.5039C21.8906 36.6361 21.4219 36.3986 21.4219 35.6908V33.3547H22.4828V35.5914C22.4828 35.8306 22.6773 35.9478 22.9211 35.9478H24.9305Z" fill="white"/>
<path d="M26.3393 36.6361H25.2799V34.0414H24.1689V33.3547H27.4502V34.0422H26.3401V36.6361H26.3393Z" fill="white"/>
<path d="M13.6131 34.4494V34.636L15.1381 34.6296L14.8162 35.1624C14.8162 35.1624 14.7467 35.3046 14.535 35.3071L13.6225 35.3163L13.6311 35.621C13.6311 35.6219 13.6327 35.6507 13.6412 35.6821C13.6983 35.8369 13.8452 35.9485 14.0194 35.9485L15.3412 35.9538H15.6225V36.6369H12.5491V33.3555H15.6225V34.0369L14.0202 34.0438C13.7952 34.043 13.6131 34.2244 13.6131 34.4494Z" fill="white"/>
<path d="M26.0422 16.457C27.9914 15.8789 29.6681 14.2843 29.6681 12.025C29.6681 7.42809 24.8703 6.94995 21.8891 6.94995H10.332V26.2859H12.7375H14.3773V11.0476H26.4109L25.0781 13.6296C25.0781 13.6296 24.8164 14.1828 23.8977 14.1828H19.4992C19.4992 14.1828 17.9797 14.2359 17.9797 16.0617V20.1242C17.9797 20.1242 18.1016 18.5398 19.4367 18.4148L25.3219 18.3906L24.0563 20.8609C24.0563 20.8609 23.7844 21.5211 22.9523 21.5289L19.4195 21.5382C19.4195 21.5382 17.9734 21.5148 17.9734 23.1976V26.2867H21.8883C25.1125 26.2726 29.6672 25.8195 29.6672 21.0789C29.6681 18.9062 28.4719 17.3187 26.0422 16.457Z" fill="white"/>
</g>
</g>
<defs>
<clipPath id="clip0_8963_95570">
<rect width="40" height="40" fill="white"/>
</clipPath>
</defs>
</svg>
